<!DOCTYPE svg PUBLIC "-//W3C//DTD SVG 1.1//EN" "http://www.w3.org/Graphics/SVG/1.1/DTD/svg11.dtd">
<!-- Uploaded to: SVG Repo, www.svgrepo.com, Transformed by: SVG Repo Mixer Tools -->
<svg fill="#fe8f40" version="1.1" id="Capa_1" xmlns="http://www.w3.org/2000/svg" xmlns:xlink="http://www.w3.org/1999/xlink" width="135px" height="135px" viewBox="-4.96 -4.96 59.54 59.54" xml:space="preserve" stroke="#fe8f40">
<g id="SVGRepo_bgCarrier" stroke-width="0"/>
<g id="SVGRepo_tracerCarrier" stroke-linecap="round" stroke-linejoin="round" stroke="#CCCCCC" stroke-width="0.198472"/>
<g id="SVGRepo_iconCarrier"> <g> <g> <path d="M42.938,8.943c-1.656-0.635-3.6-0.971-5.619-0.971c-3.74,0-7.409,1.087-10.037,2.884c-0.455,0.312-0.937,0.17-1.132-0.347 c-1.44-3.816-4.905-9.463-12.783-9.463C8.734,1.066,4.869,3.118,2.483,6.825c-3.205,4.994-3.315,12.262-0.288,18.967 c4.906,10.862,12.86,21.922,12.93,22.017c0,0,0.149,0.207,0.333,0.463c0.183,0.256,0.569,0.371,0.862,0.256l0.53-0.211 c3.099-1.225,30.338-12.399,32.582-27.226C50.68,12.852,45.307,9.852,42.938,8.943z M46.538,20.658 c-0.141,0.943-0.417,1.887-0.842,2.882c-4.364,10.141-22.089,18.64-27.943,21.217c-0.505,0.224-1.173,0.029-1.484-0.427 c-2.417-3.541-7.803-11.758-11.406-19.741c-2.257-5.004-2.559-10.423-0.808-14.493c0.255-0.59,0.556-1.16,0.894-1.691 c1.684-2.617,4.242-4.122,7.439-4.39c0.55-0.046,1.509-0.048,2.059-0.002c8.386,0.696,9.744,10.102,9.799,10.514l0.376,2.892 c0.071,0.547,0.376,0.618,0.682,0.158l1.614-2.431c1.657-2.515,5.888-4.27,10.286-4.27c1.703,0,3.323,0.276,4.688,0.801 C45.605,13.102,47.212,16.206,46.538,20.658z"/> </g> </g> </g>
</svg>